<?xml version="1.0" encoding="UTF-8"?>
<svg xmlns="http://www.w3.org/2000/svg" viewBox="0 0 500 750" width="500" height="750" role="img" aria-label="Poster placeholder">
  <defs>
    <linearGradient id="bg" x1="0" y1="0" x2="0" y2="1">
      <stop offset="0%" stop-color="#1f2937"/>
      <stop offset="100%" stop-color="#111827"/>
    </linearGradient>
  </defs>
  <rect width="500" height="750" fill="url(#bg)"/>
  <!-- left film-strip perforations -->
  <g fill="#374151">
    <rect x="20" y="30" width="40" height="30" rx="4"/>
    <rect x="20" y="90" width="40" height="30" rx="4"/>
    <rect x="20" y="150" width="40" height="30" rx="4"/>
    <rect x="20" y="210" width="40" height="30" rx="4"/>
    <rect x="20" y="270" width="40" height="30" rx="4"/>
    <rect x="20" y="330" width="40" height="30" rx="4"/>
    <rect x="20" y="390" width="40" height="30" rx="4"/>
    <rect x="20" y="450" width="40" height="30" rx="4"/>
    <rect x="20" y="510" width="40" height="30" rx="4"/>
    <rect x="20" y="570" width="40" height="30" rx="4"/>
    <rect x="20" y="630" width="40" height="30" rx="4"/>
    <rect x="20" y="690" width="40" height="30" rx="4"/>
  </g>
  <!-- right film-strip perforations -->
  <g fill="#374151">
    <rect x="440" y="30" width="40" height="30" rx="4"/>
    <rect x="440" y="90" width="40" height="30" rx="4"/>
    <rect x="440" y="150" width="40" height="30" rx="4"/>
    <rect x="440" y="210" width="40" height="30" rx="4"/>
    <rect x="440" y="270" width="40" height="30" rx="4"/>
    <rect x="440" y="330" width="40" height="30" rx="4"/>
    <rect x="440" y="390" width="40" height="30" rx="4"/>
    <rect x="440" y="450" width="40" height="30" rx="4"/>
    <rect x="440" y="510" width="40" height="30" rx="4"/>
    <rect x="440" y="570" width="40" height="30" rx="4"/>
    <rect x="440" y="630" width="40" height="30" rx="4"/>
    <rect x="440" y="690" width="40" height="30" rx="4"/>
  </g>
  <!-- center film-reel icon -->
  <g transform="translate(250 330)" fill="#4b5563">
    <circle r="90"/>
    <circle r="18" fill="#111827"/>
    <circle cx="0" cy="-55" r="14" fill="#111827"/>
    <circle cx="55" cy="0" r="14" fill="#111827"/>
    <circle cx="0" cy="55" r="14" fill="#111827"/>
    <circle cx="-55" cy="0" r="14" fill="#111827"/>
    <circle cx="39" cy="-39" r="10" fill="#111827"/>
    <circle cx="39" cy="39" r="10" fill="#111827"/>
    <circle cx="-39" cy="39" r="10" fill="#111827"/>
    <circle cx="-39" cy="-39" r="10" fill="#111827"/>
  </g>
  <text x="250" y="490" text-anchor="middle" font-family="-apple-system, BlinkMacSystemFont, 'Segoe UI', Arial, sans-serif" font-size="26" font-weight="600" fill="#9ca3af">Poster coming soon</text>
  <text x="250" y="525" text-anchor="middle" font-family="-apple-system, BlinkMacSystemFont, 'Segoe UI', Arial, sans-serif" font-size="16" fill="#6b7280">Artwork will appear here once indexed.</text>
</svg>
